<?xml version="1.0" standalone="no"?>
<!DOCTYPE svg PUBLIC "-//W3C//DTD SVG 20010904//EN"
 "http://www.w3.org/TR/2001/REC-SVG-20010904/DTD/svg10.dtd">
<svg version="1.0" xmlns="http://www.w3.org/2000/svg"
 width="96.000000pt" height="96.000000pt" viewBox="0 0 96.000000 96.000000"
 preserveAspectRatio="xMidYMid meet">
<metadata>
Created by potrace 1.14, written by Peter Selinger 2001-2017
</metadata>
<g transform="translate(0.000000,96.000000) scale(0.100000,-0.100000)"
fill="#000000" stroke="none">
<path d="M208 752 c-129 -129 -138 -147 -95 -199 31 -38 31 -107 -1 -147 -41
-53 -33 -69 96 -198 129 -129 145 -137 198 -96 21 17 42 23 78 23 39 0 55 -5
73 -23 44 -44 67 -32 195 96 127 127 139 151 97 193 -32 32 -33 124 -2 155 45
45 34 68 -95 196 -129 129 -145 137 -198 96 -21 -17 -42 -23 -78 -23 -39 0
-55 5 -73 23 -44 44 -67 32 -195 -96z m174 71 c13 -15 48 -133 48 -161 0 -4
-15 -16 -34 -25 -34 -16 -35 -15 -65 14 -17 16 -35 29 -41 29 -19 0 -10 -26
19 -54 29 -28 29 -29 13 -62 -18 -40 -14 -39 -100 -18 -75 19 -107 42 -98 71
8 26 209 223 228 223 8 0 22 -8 30 -17z m340 -80 c55 -54 104 -106 109 -116
24 -43 -17 -69 -141 -92 -33 -6 -37 -4 -52 28 -16 34 -16 34 15 65 25 25 29
34 19 44 -10 10 -19 6 -43 -19 l-29 -32 -35 16 c-19 9 -35 21 -35 27 0 6 9 44
20 85 31 120 43 120 172 -6z m-201 48 c4 -1 -1 -30 -9 -66 -20 -84 -40 -84
-63 0 -9 33 -15 63 -13 66 2 4 50 4 85 0z m24 -181 c46 -22 85 -80 85 -126 0
-51 -37 -111 -84 -133 -54 -26 -79 -26 -134 0 -47 23 -82 78 -82 129 0 51 35
105 81 128 54 27 81 28 134 2z m-247 -131 c3 -19 -124 -53 -131 -35 -3 10 -2
58 2 78 2 13 126 -27 129 -43z m496 4 c-1 -21 -2 -41 -3 -44 -1 -4 -30 1 -66
9 -84 20 -84 40 0 63 33 9 63 15 66 13 3 -2 4 -20 3 -41z m-472 -87 c16 -33
16 -33 -15 -64 -25 -26 -29 -34 -18 -44 10 -11 18 -7 41 19 l30 33 35 -17 c19
-9 35 -21 35 -27 0 -6 -9 -44 -20 -85 -31 -122 -44 -121 -182 17 -137 137
-139 151 -22 182 94 25 98 25 116 -14z m421 17 c66 -18 97 -37 97 -61 0 -18
-196 -220 -223 -228 -31 -10 -54 23 -72 103 -9 41 -15 76 -13 77 1 2 17 10 33
19 29 15 31 15 63 -16 25 -24 35 -28 44 -19 10 10 6 19 -19 44 -31 31 -31 31
-15 64 20 39 22 39 105 17z m-231 -181 c9 -34 13 -63 10 -65 -14 -6 -87 -1
-86 6 22 141 48 162 76 59z"/>
<path d="M454 583 c-12 -2 -34 -17 -49 -33 -63 -65 -16 -173 74 -173 47 0 77
21 96 68 32 74 -38 153 -121 138z"/>
</g>
</svg>
